<svg width="520" height="420" viewBox="0 0 520 420" fill="none" xmlns="http://www.w3.org/2000/svg">
  <rect width="520" height="420" rx="36" fill="#F4F8FF"/>
  <path d="M86 86C86 62.803 104.803 44 128 44H370C393.197 44 412 62.803 412 86V318C412 341.197 393.197 360 370 360H128C104.803 360 86 341.197 86 318V86Z" fill="#FFFFFF"/>
  <rect x="118" y="94" width="262" height="14" rx="7" fill="#DFE8FB"/>
  <rect x="118" y="124" width="210" height="14" rx="7" fill="#E9EEF9"/>
  <rect x="118" y="154" width="180" height="14" rx="7" fill="#E9EEF9"/>
  <rect x="118" y="184" width="140" height="14" rx="7" fill="#E9EEF9"/>
  <circle cx="214" cy="256" r="46" fill="#E3EDFF"/>
  <path d="M214 214C226.15 214 236 223.85 236 236C236 248.15 226.15 258 214 258C201.85 258 192 248.15 192 236C192 223.85 201.85 214 214 214Z" fill="#7FA8F8"/>
  <path d="M188 294C188 274.118 204.118 258 224 258H284C303.882 258 320 274.118 320 294V312H188V294Z" fill="#B7CEFF"/>
  <circle cx="320" cy="246" r="30" fill="#F2C0FF"/>
  <path d="M320 230V262" stroke="#FFFFFF" stroke-width="6" stroke-linecap="round"/>
  <path d="M304 246H336" stroke="#FFFFFF" stroke-width="6" stroke-linecap="round"/>
  <rect x="352" y="218" width="42" height="14" rx="7" fill="#D3E4FF"/>
  <rect x="352" y="244" width="56" height="14" rx="7" fill="#D3E4FF"/>
  <rect x="352" y="270" width="36" height="14" rx="7" fill="#D3E4FF"/>
  <path d="M126 320C126 303.431 139.431 290 156 290H208C224.569 290 238 303.431 238 320V334H126V320Z" fill="#E8F1FF"/>
  <circle cx="162" cy="270" r="16" fill="#9BB8F9"/>
  <circle cx="368" cy="120" r="10" fill="#7FA8F8"/>
  <circle cx="388" cy="142" r="8" fill="#B7CEFF"/>
  <circle cx="398" cy="112" r="6" fill="#F2C0FF"/>
</svg>
